<mxGraphModel dx="1116" dy="636" grid="1" gridSize="8" guides="1" tooltips="1" connect="1" arrows="1" fold="1" page="1" pageScale="1" pageWidth="1169" pageHeight="827" background="#ffffff"><root><MiscDiagram modelType="MiscDiagram" lastModifiedUserId="dbush@ibm.com" description="" lastModified="2022-01-25T15:47:48Z" _id="miscdiagram_rkYAmMowK" label="Automation Decision Services on OCP" id="0"><mxCell/></MiscDiagram><mxCell id="1" parent="0"/><UserObject placeholders="1" label="50 Gi RWX/RWO FS Storage" Icon-Name="block-storage--alt" id="miscdiagram_rkYAmMowK_23dyPSvTIWV1"><mxCell style="shape=mxgraph.ibm2mondrian.base;shapeType=ln;shapeLayout=collapsed;colorFamily=cyan;colorBackground=noColor:noColor;html=1;whiteSpace=wrap;metaEdit=1;strokeWidth=1;collapsible=0;recursiveResize=0;expand=0;fontFamily=IBM Plex Sans;fontColor=#000000;fontSize=14;image=;verticalAlign=top;align=center;spacing=0;spacingLeft=0;spacingRight=0;spacingTop=0;spacingBottom=0;verticalLabelPosition=bottom;labelPosition=center;positionText=bottom;container=1;labelWidth=71;" vertex="1" parent="1"><mxGeometry x="114" y="400" width="48" height="48" as="geometry"/></mxCell></UserObject><UserObject placeholders="1" label="MongoDb (optional)" Icon-Name="data--base" _id="userobject_36gZY5eAaqw" id="miscdiagram_rkYAmMowK_33dyPSvTX9Wp"><mxCell style="shape=mxgraph.ibm2mondrian.base;shapeType=ln;shapeLayout=collapsed;colorFamily=cyan;colorBackground=noColor:noColor;html=1;whiteSpace=wrap;metaEdit=1;strokeWidth=1;collapsible=0;recursiveResize=0;expand=0;fontFamily=IBM Plex Sans;fontColor=#000000;fontSize=14;image=;verticalAlign=top;align=center;spacing=0;spacingLeft=0;spacingRight=0;spacingTop=0;spacingBottom=0;verticalLabelPosition=bottom;labelPosition=center;positionText=bottom;container=1" vertex="1" parent="1"><mxGeometry x="37" y="400" width="48" height="48" as="geometry"/></mxCell></UserObject><mxCell id="miscdiagram_rkYAmMowK_43dyPSvT9KbY" style="edgeStyle=orthogonalEdgeStyle;rounded=1;orthogonalLoop=1;jettySize=auto;html=1;jumpStyle=arc;jumpSize=8;entryX=0.165;entryY=1.011;entryDx=0;entryDy=0;entryPerimeter=0;" edge="1" parent="1" source="miscdiagram_rkYAmMowK_33dyPSvTX9Wp" target="miscdiagram_rkYAmMowK_153dyPSvTxtzl"><mxGeometry relative="1" as="geometry"/></mxCell><mxCell id="miscdiagram_rkYAmMowK_53dyPSvTQ8Yp" style="edgeStyle=orthogonalEdgeStyle;rounded=1;orthogonalLoop=1;jettySize=auto;html=1;jumpStyle=arc;jumpSize=8;entryX=0.6;entryY=1;entryDx=0;entryDy=0;entryPerimeter=0;" edge="1" parent="1" source="miscdiagram_rkYAmMowK_23dyPSvTIWV1" target="miscdiagram_rkYAmMowK_153dyPSvTxtzl"><mxGeometry relative="1" as="geometry"/></mxCell><UserObject placeholders="1" label="50 Gi RWX/RWO FS Storage" Icon-Name="block-storage--alt" _id="userobject_3apJ7Cky1So" id="miscdiagram_rkYAmMowK_63dyPSvTbgUA"><mxCell style="shape=mxgraph.ibm2mondrian.base;shapeType=ln;shapeLayout=collapsed;colorFamily=cyan;colorBackground=noColor:noColor;html=1;whiteSpace=wrap;metaEdit=1;strokeWidth=1;collapsible=0;recursiveResize=0;expand=0;fontFamily=IBM Plex Sans;fontColor=#000000;fontSize=14;image=;verticalAlign=top;align=center;spacing=0;spacingLeft=0;spacingRight=0;spacingTop=0;spacingBottom=0;verticalLabelPosition=bottom;labelPosition=center;positionText=bottom;container=1;labelWidth=71;" vertex="1" parent="1"><mxGeometry x="566" y="344" width="48" height="48" as="geometry"/></mxCell></UserObject><UserObject placeholders="1" label="MongoDb (optional)" Icon-Name="data--base" _id="userobject_3apJ7Cl2GSO" id="miscdiagram_rkYAmMowK_73dyPSvTG55o"><mxCell style="shape=mxgraph.ibm2mondrian.base;shapeType=ln;shapeLayout=collapsed;colorFamily=cyan;colorBackground=noColor:noColor;html=1;whiteSpace=wrap;metaEdit=1;strokeWidth=1;collapsible=0;recursiveResize=0;expand=0;fontFamily=IBM Plex Sans;fontColor=#000000;fontSize=14;image=;verticalAlign=top;align=center;spacing=0;spacingLeft=0;spacingRight=0;spacingTop=0;spacingBottom=0;verticalLabelPosition=bottom;labelPosition=center;positionText=bottom;container=1" vertex="1" parent="1"><mxGeometry x="480" y="344" width="48" height="48" as="geometry"/></mxCell></UserObject><UserObject placeholders="1" label="50 Gi RWX/RWO FS Storage" Icon-Name="block-storage--alt" _id="userobject_3apJ9ubQSxp" id="miscdiagram_rkYAmMowK_83dyPSvTP5GL"><mxCell style="shape=mxgraph.ibm2mondrian.base;shapeType=ln;shapeLayout=collapsed;colorFamily=cyan;colorBackground=noColor:noColor;html=1;whiteSpace=wrap;metaEdit=1;strokeWidth=1;collapsible=0;recursiveResize=0;expand=0;fontFamily=IBM Plex Sans;fontColor=#000000;fontSize=14;image=;verticalAlign=top;align=center;spacing=0;spacingLeft=0;spacingRight=0;spacingTop=0;spacingBottom=0;verticalLabelPosition=bottom;labelPosition=center;positionText=bottom;container=1;labelWidth=71;" vertex="1" parent="1"><mxGeometry x="1047" y="336" width="48" height="48" as="geometry"/></mxCell></UserObject><UserObject placeholders="1" label="MongoDb (optional)" Icon-Name="data--base" _id="userobject_3apJ9ub1aHb" id="miscdiagram_rkYAmMowK_93dyPSvT6f9L"><mxCell style="shape=mxgraph.ibm2mondrian.base;shapeType=ln;shapeLayout=collapsed;colorFamily=cyan;colorBackground=noColor:noColor;html=1;whiteSpace=wrap;metaEdit=1;strokeWidth=1;collapsible=0;recursiveResize=0;expand=0;fontFamily=IBM Plex Sans;fontColor=#000000;fontSize=14;image=;verticalAlign=top;align=center;spacing=0;spacingLeft=0;spacingRight=0;spacingTop=0;spacingBottom=0;verticalLabelPosition=bottom;labelPosition=center;positionText=bottom;container=1" vertex="1" parent="1"><mxGeometry x="962" y="336" width="48" height="48" as="geometry"/></mxCell></UserObject><mxCell id="miscdiagram_rkYAmMowK_103dyPSvTPiRG" style="edgeStyle=orthogonalEdgeStyle;rounded=1;orthogonalLoop=1;jettySize=auto;html=1;jumpStyle=arc;jumpSize=8;entryX=0.25;entryY=1;entryDx=0;entryDy=0;entryPerimeter=0;" edge="1" parent="1" source="miscdiagram_rkYAmMowK_73dyPSvTG55o" target="miscdiagram_rkYAmMowK_263dyPSvTRjX4"><mxGeometry relative="1" as="geometry"/></mxCell><mxCell id="miscdiagram_rkYAmMowK_113dyPSvT9uMU" style="edgeStyle=orthogonalEdgeStyle;rounded=1;orthogonalLoop=1;jettySize=auto;html=1;jumpStyle=arc;jumpSize=8;entryX=0.7;entryY=1;entryDx=0;entryDy=0;entryPerimeter=0;" edge="1" parent="1" source="miscdiagram_rkYAmMowK_63dyPSvTbgUA" target="miscdiagram_rkYAmMowK_263dyPSvTRjX4"><mxGeometry relative="1" as="geometry"/></mxCell><mxCell id="miscdiagram_rkYAmMowK_123dyPSvTn1hH" style="edgeStyle=orthogonalEdgeStyle;rounded=1;orthogonalLoop=1;jettySize=auto;html=1;jumpStyle=arc;jumpSize=8;entryX=0.3;entryY=1;entryDx=0;entryDy=0;entryPerimeter=0;" edge="1" parent="1" source="miscdiagram_rkYAmMowK_93dyPSvT6f9L" target="miscdiagram_rkYAmMowK_303dyPSvTjNd5"><mxGeometry relative="1" as="geometry"/></mxCell><mxCell id="miscdiagram_rkYAmMowK_133dyPSvTGtmN" style="edgeStyle=orthogonalEdgeStyle;rounded=1;orthogonalLoop=1;jettySize=auto;html=1;jumpStyle=arc;jumpSize=8;entryX=0.75;entryY=1;entryDx=0;entryDy=0;entryPerimeter=0;" edge="1" parent="1" source="miscdiagram_rkYAmMowK_83dyPSvTP5GL" target="miscdiagram_rkYAmMowK_303dyPSvTjNd5"><mxGeometry relative="1" as="geometry"/></mxCell><UserObject placeholders="1" label="OpenShift 4.7-4.8 Non-Prod Cluster" Icon-Name="logo--openshift" id="miscdiagram_rkYAmMowK_143dyPSvTeYBG"><mxCell style="shape=mxgraph.ibm2mondrian.base;shapeType=pg;shapeLayout=expanded;colorFamily=green;colorBackground=noColor:noColor;strokeWidth=1;html=1;whiteSpace=wrap;metaEdit=1;collapsible=0;recursiveResize=0;expand=0;fontFamily=IBM Plex Sans SmBld;fontColor=#000000;fontSize=14;image=;verticalAlign=middle;align=left;spacing=0;spacingLeft=16;spacingRight=16;spacingTop=0;spacingBottom=0;container=1" vertex="1" parent="1"><mxGeometry x="16" y="16" width="400" height="344" as="geometry"/></mxCell></UserObject><UserObject placeholders="1" label="ADS Namespace" Icon-Name="border--none" id="miscdiagram_rkYAmMowK_153dyPSvTxtzl"><mxCell style="shape=mxgraph.ibm2mondrian.base;shapeType=lg;shapeLayout=expanded;colorFamily=green;colorBackground=noColor:noColor;html=1;whiteSpace=wrap;metaEdit=1;strokeWidth=1;collapsible=0;recursiveResize=0;expand=0;fontFamily=IBM Plex Sans;fontColor=#000000;fontSize=14;image=;verticalAlign=middle;align=left;spacing=0;spacingLeft=12;spacingRight=16;spacingTop=0;spacingBottom=0;container=1" vertex="1" parent="miscdiagram_rkYAmMowK_143dyPSvTeYBG"><mxGeometry x="16" y="48" width="176" height="277" as="geometry"/></mxCell></UserObject><UserObject placeholders="1" label="Decision Server Runtime" Icon-Name="cube" _id="userobject_32UdcglKTdE" id="miscdiagram_rkYAmMowK_163dyPSvTSYyZ"><mxCell style="shape=mxgraph.ibm2mondrian.base;shapeType=lg;shapeLayout=expanded;colorFamily=green;colorBackground=noColor:noColor;html=1;whiteSpace=wrap;metaEdit=1;strokeWidth=1;collapsible=0;recursiveResize=0;expand=0;fontFamily=IBM Plex Sans;fontColor=#000000;fontSize=14;image=;verticalAlign=middle;align=left;spacing=0;spacingLeft=12;spacingRight=16;spacingTop=0;spacingBottom=0;container=1" vertex="1" parent="miscdiagram_rkYAmMowK_153dyPSvTxtzl"><mxGeometry x="9" y="192" width="144" height="64" as="geometry"/></mxCell></UserObject><UserObject placeholders="1" label="Decision Designer" Icon-Name="cube" _id="userobject_32Uk57xUjQN" id="miscdiagram_rkYAmMowK_173dyPSvTvGjQ"><mxCell style="shape=mxgraph.ibm2mondrian.base;shapeType=lg;shapeLayout=expanded;colorFamily=green;colorBackground=noColor:noColor;html=1;whiteSpace=wrap;metaEdit=1;strokeWidth=1;collapsible=0;recursiveResize=0;expand=0;fontFamily=IBM Plex Sans;fontColor=#000000;fontSize=14;image=;verticalAlign=middle;align=left;spacing=0;spacingLeft=12;spacingRight=16;spacingTop=0;spacingBottom=0;container=1" vertex="1" parent="miscdiagram_rkYAmMowK_153dyPSvTxtzl"><mxGeometry x="9" y="48" width="144" height="64" as="geometry"/></mxCell></UserObject><UserObject placeholders="1" label="Decision Server Console" Icon-Name="cube" _id="userobject_36gLhacHONI" id="miscdiagram_rkYAmMowK_183dyPSvTqPuU"><mxCell style="shape=mxgraph.ibm2mondrian.base;shapeType=lg;shapeLayout=expanded;colorFamily=green;colorBackground=noColor:noColor;html=1;whiteSpace=wrap;metaEdit=1;strokeWidth=1;collapsible=0;recursiveResize=0;expand=0;fontFamily=IBM Plex Sans;fontColor=#000000;fontSize=14;image=;verticalAlign=middle;align=left;spacing=0;spacingLeft=12;spacingRight=16;spacingTop=0;spacingBottom=0;container=1" vertex="1" parent="miscdiagram_rkYAmMowK_153dyPSvTxtzl"><mxGeometry x="8" y="120" width="144" height="64" as="geometry"/></mxCell></UserObject><UserObject placeholders="1" label="Application Namespace" Icon-Name="border--none" id="miscdiagram_rkYAmMowK_193dyPSvTkVwt"><mxCell style="shape=mxgraph.ibm2mondrian.base;shapeType=lg;shapeLayout=expanded;colorFamily=green;colorBackground=noColor:noColor;html=1;whiteSpace=wrap;metaEdit=1;strokeWidth=1;collapsible=0;recursiveResize=0;expand=0;fontFamily=IBM Plex Sans;fontColor=#000000;fontSize=14;image=;verticalAlign=middle;align=left;spacing=0;spacingLeft=12;spacingRight=16;spacingTop=0;spacingBottom=0;container=1" vertex="1" parent="miscdiagram_rkYAmMowK_143dyPSvTeYBG"><mxGeometry x="208" y="48" width="176" height="197" as="geometry"/></mxCell></UserObject><UserObject placeholders="1" label="App with Embedded Rules" Icon-Name="cube" _id="userobject_364tx5ubr6u" id="miscdiagram_rkYAmMowK_203dyPSvTmUkT"><mxCell style="shape=mxgraph.ibm2mondrian.base;shapeType=lg;shapeLayout=expanded;colorFamily=green;colorBackground=noColor:noColor;html=1;whiteSpace=wrap;metaEdit=1;strokeWidth=1;collapsible=0;recursiveResize=0;expand=0;fontFamily=IBM Plex Sans;fontColor=#000000;fontSize=14;image=;verticalAlign=middle;align=left;spacing=0;spacingLeft=12;spacingRight=16;spacingTop=0;spacingBottom=0;container=1" vertex="1" parent="miscdiagram_rkYAmMowK_193dyPSvTkVwt"><mxGeometry x="16" y="112" width="144" height="64" as="geometry"/></mxCell></UserObject><UserObject placeholders="1" label="App Calling Rules API" Icon-Name="cube" _id="userobject_365ESUdfBAx" id="miscdiagram_rkYAmMowK_213dyPSvTAVjs"><mxCell style="shape=mxgraph.ibm2mondrian.base;shapeType=lg;shapeLayout=expanded;colorFamily=green;colorBackground=noColor:noColor;html=1;whiteSpace=wrap;metaEdit=1;strokeWidth=1;collapsible=0;recursiveResize=0;expand=0;fontFamily=IBM Plex Sans;fontColor=#000000;fontSize=14;image=;verticalAlign=middle;align=left;spacing=0;spacingLeft=12;spacingRight=16;spacingTop=0;spacingBottom=0;container=1" vertex="1" parent="miscdiagram_rkYAmMowK_193dyPSvTkVwt"><mxGeometry x="16" y="41" width="144" height="64" as="geometry"/></mxCell></UserObject><UserObject placeholders="1" label="OpenShift 4.7-4.8 Test/QA/Stage Cluster" Icon-Name="logo--openshift" _id="userobject_3dwAQBNOQGz" id="miscdiagram_rkYAmMowK_223dyPSvTNWRO"><mxCell style="shape=mxgraph.ibm2mondrian.base;shapeType=pg;shapeLayout=expanded;colorFamily=green;colorBackground=noColor:noColor;strokeWidth=1;html=1;whiteSpace=wrap;metaEdit=1;collapsible=0;recursiveResize=0;expand=0;fontFamily=IBM Plex Sans SmBld;fontColor=#000000;fontSize=14;image=;verticalAlign=middle;align=left;spacing=0;spacingLeft=16;spacingRight=16;spacingTop=0;spacingBottom=0;container=1" vertex="1" parent="1"><mxGeometry x="432" y="16" width="464" height="296" as="geometry"/></mxCell></UserObject><UserObject placeholders="1" label="Application Namespace" Icon-Name="border--none" _id="userobject_36gD9mqQabU" id="miscdiagram_rkYAmMowK_233dyPSvTdU8K"><mxCell style="shape=mxgraph.ibm2mondrian.base;shapeType=lg;shapeLayout=expanded;colorFamily=green;colorBackground=noColor:noColor;html=1;whiteSpace=wrap;metaEdit=1;strokeWidth=1;collapsible=0;recursiveResize=0;expand=0;fontFamily=IBM Plex Sans;fontColor=#000000;fontSize=14;image=;verticalAlign=middle;align=left;spacing=0;spacingLeft=12;spacingRight=16;spacingTop=0;spacingBottom=0;container=1" vertex="1" parent="miscdiagram_rkYAmMowK_223dyPSvTNWRO"><mxGeometry x="232" y="48" width="214" height="224" as="geometry"/></mxCell></UserObject><UserObject placeholders="1" label="App with Embedded Rules" Icon-Name="cube" _id="userobject_36gD9mrrcRF" id="miscdiagram_rkYAmMowK_243dyPSvTCaIr"><mxCell style="shape=mxgraph.ibm2mondrian.base;shapeType=lg;shapeLayout=expanded;colorFamily=green;colorBackground=noColor:noColor;html=1;whiteSpace=wrap;metaEdit=1;strokeWidth=1;collapsible=0;recursiveResize=0;expand=0;fontFamily=IBM Plex Sans;fontColor=#000000;fontSize=14;image=;verticalAlign=middle;align=left;spacing=0;spacingLeft=12;spacingRight=16;spacingTop=0;spacingBottom=0;container=1" vertex="1" parent="miscdiagram_rkYAmMowK_233dyPSvTdU8K"><mxGeometry x="16" y="122" width="144" height="64" as="geometry"/></mxCell></UserObject><UserObject placeholders="1" label="App Calling Rules API" Icon-Name="cube" _id="userobject_36gD9mrjvq1" id="miscdiagram_rkYAmMowK_253dyPSvTFQX8"><mxCell style="shape=mxgraph.ibm2mondrian.base;shapeType=lg;shapeLayout=expanded;colorFamily=green;colorBackground=noColor:noColor;html=1;whiteSpace=wrap;metaEdit=1;strokeWidth=1;collapsible=0;recursiveResize=0;expand=0;fontFamily=IBM Plex Sans;fontColor=#000000;fontSize=14;image=;verticalAlign=middle;align=left;spacing=0;spacingLeft=12;spacingRight=16;spacingTop=0;spacingBottom=0;container=1" vertex="1" parent="miscdiagram_rkYAmMowK_233dyPSvTdU8K"><mxGeometry x="16" y="48" width="144" height="64" as="geometry"/></mxCell></UserObject><UserObject placeholders="1" label="ADS Namespace" Icon-Name="border--none" _id="userobject_365Ft8IL3wn" id="miscdiagram_rkYAmMowK_263dyPSvTRjX4"><mxCell style="shape=mxgraph.ibm2mondrian.base;shapeType=lg;shapeLayout=expanded;colorFamily=green;colorBackground=noColor:noColor;html=1;whiteSpace=wrap;metaEdit=1;strokeWidth=1;collapsible=0;recursiveResize=0;expand=0;fontFamily=IBM Plex Sans;fontColor=#000000;fontSize=14;image=;verticalAlign=middle;align=left;spacing=0;spacingLeft=12;spacingRight=16;spacingTop=0;spacingBottom=0;container=1" vertex="1" parent="miscdiagram_rkYAmMowK_223dyPSvTNWRO"><mxGeometry x="24" y="48" width="192" height="202" as="geometry"/></mxCell></UserObject><UserObject placeholders="1" label="Decision Server Runtime" Icon-Name="cube" _id="userobject_32UdcglKTdE" id="miscdiagram_rkYAmMowK_273dyPSvTdTPb"><mxCell style="shape=mxgraph.ibm2mondrian.base;shapeType=lg;shapeLayout=expanded;colorFamily=green;colorBackground=noColor:noColor;html=1;whiteSpace=wrap;metaEdit=1;strokeWidth=1;collapsible=0;recursiveResize=0;expand=0;fontFamily=IBM Plex Sans;fontColor=#000000;fontSize=14;image=;verticalAlign=middle;align=left;spacing=0;spacingLeft=12;spacingRight=16;spacingTop=0;spacingBottom=0;container=1" vertex="1" parent="miscdiagram_rkYAmMowK_263dyPSvTRjX4"><mxGeometry x="24" y="45" width="144" height="64" as="geometry"/></mxCell></UserObject><UserObject placeholders="1" label="Decision Server Console" Icon-Name="cube" _id="userobject_36gZrDV3X4R" id="miscdiagram_rkYAmMowK_283dyPSvTu6Hf"><mxCell style="shape=mxgraph.ibm2mondrian.base;shapeType=lg;shapeLayout=expanded;colorFamily=green;colorBackground=noColor:noColor;html=1;whiteSpace=wrap;metaEdit=1;strokeWidth=1;collapsible=0;recursiveResize=0;expand=0;fontFamily=IBM Plex Sans;fontColor=#000000;fontSize=14;image=;verticalAlign=middle;align=left;spacing=0;spacingLeft=12;spacingRight=16;spacingTop=0;spacingBottom=0;container=1" vertex="1" parent="miscdiagram_rkYAmMowK_263dyPSvTRjX4"><mxGeometry x="24" y="122" width="144" height="64" as="geometry"/></mxCell></UserObject><UserObject placeholders="1" label="OpenShift 4.7-4.8 Prod Cluster" Icon-Name="logo--openshift" _id="userobject_3dwBkepx7zg" id="miscdiagram_rkYAmMowK_293dyPSvTsO7n"><mxCell style="shape=mxgraph.ibm2mondrian.base;shapeType=pg;shapeLayout=expanded;colorFamily=green;colorBackground=noColor:noColor;strokeWidth=1;html=1;whiteSpace=wrap;metaEdit=1;collapsible=0;recursiveResize=0;expand=0;fontFamily=IBM Plex Sans SmBld;fontColor=#000000;fontSize=14;image=;verticalAlign=middle;align=left;spacing=0;spacingLeft=16;spacingRight=16;spacingTop=0;spacingBottom=0;container=1" vertex="1" parent="1"><mxGeometry x="912" y="16" width="456" height="288" as="geometry"/></mxCell></UserObject><UserObject placeholders="1" label="ADS Namespace" Icon-Name="border--none" _id="userobject_3apIvLIPJLG" id="miscdiagram_rkYAmMowK_303dyPSvTjNd5"><mxCell style="shape=mxgraph.ibm2mondrian.base;shapeType=lg;shapeLayout=expanded;colorFamily=green;colorBackground=noColor:noColor;html=1;whiteSpace=wrap;metaEdit=1;strokeWidth=1;collapsible=0;recursiveResize=0;expand=0;fontFamily=IBM Plex Sans;fontColor=#000000;fontSize=14;image=;verticalAlign=middle;align=left;spacing=0;spacingLeft=12;spacingRight=16;spacingTop=0;spacingBottom=0;container=1" vertex="1" parent="miscdiagram_rkYAmMowK_293dyPSvTsO7n"><mxGeometry x="16" y="48" width="192" height="202" as="geometry"/></mxCell></UserObject><UserObject placeholders="1" label="Decision Server Runtime" Icon-Name="cube" _id="userobject_3apIvLJAvXA" id="miscdiagram_rkYAmMowK_313dyPSvT5UOd"><mxCell style="shape=mxgraph.ibm2mondrian.base;shapeType=lg;shapeLayout=expanded;colorFamily=green;colorBackground=noColor:noColor;html=1;whiteSpace=wrap;metaEdit=1;strokeWidth=1;collapsible=0;recursiveResize=0;expand=0;fontFamily=IBM Plex Sans;fontColor=#000000;fontSize=14;image=;verticalAlign=middle;align=left;spacing=0;spacingLeft=12;spacingRight=16;spacingTop=0;spacingBottom=0;container=1" vertex="1" parent="miscdiagram_rkYAmMowK_303dyPSvTjNd5"><mxGeometry x="24" y="45" width="144" height="64" as="geometry"/></mxCell></UserObject><UserObject placeholders="1" label="Decision Server Console" Icon-Name="cube" _id="userobject_3apIvLJKPn7" id="miscdiagram_rkYAmMowK_323dyPSvTB8ub"><mxCell style="shape=mxgraph.ibm2mondrian.base;shapeType=lg;shapeLayout=expanded;colorFamily=green;colorBackground=noColor:noColor;html=1;whiteSpace=wrap;metaEdit=1;strokeWidth=1;collapsible=0;recursiveResize=0;expand=0;fontFamily=IBM Plex Sans;fontColor=#000000;fontSize=14;image=;verticalAlign=middle;align=left;spacing=0;spacingLeft=12;spacingRight=16;spacingTop=0;spacingBottom=0;container=1" vertex="1" parent="miscdiagram_rkYAmMowK_303dyPSvTjNd5"><mxGeometry x="24" y="122" width="144" height="64" as="geometry"/></mxCell></UserObject><UserObject placeholders="1" label="Application Namespace" Icon-Name="border--none" _id="userobject_3apIzBSyuQG" id="miscdiagram_rkYAmMowK_333dyPSvTDGAJ"><mxCell style="shape=mxgraph.ibm2mondrian.base;shapeType=lg;shapeLayout=expanded;colorFamily=green;colorBackground=noColor:noColor;html=1;whiteSpace=wrap;metaEdit=1;strokeWidth=1;collapsible=0;recursiveResize=0;expand=0;fontFamily=IBM Plex Sans;fontColor=#000000;fontSize=14;image=;verticalAlign=middle;align=left;spacing=0;spacingLeft=12;spacingRight=16;spacingTop=0;spacingBottom=0;container=1" vertex="1" parent="miscdiagram_rkYAmMowK_293dyPSvTsO7n"><mxGeometry x="224" y="48" width="214" height="224" as="geometry"/></mxCell></UserObject><UserObject placeholders="1" label="App with Embedded Rules" Icon-Name="cube" _id="userobject_3apIzBTLkqA" id="miscdiagram_rkYAmMowK_343dyPSvTSU3p"><mxCell style="shape=mxgraph.ibm2mondrian.base;shapeType=lg;shapeLayout=expanded;colorFamily=green;colorBackground=noColor:noColor;html=1;whiteSpace=wrap;metaEdit=1;strokeWidth=1;collapsible=0;recursiveResize=0;expand=0;fontFamily=IBM Plex Sans;fontColor=#000000;fontSize=14;image=;verticalAlign=middle;align=left;spacing=0;spacingLeft=12;spacingRight=16;spacingTop=0;spacingBottom=0;container=1" vertex="1" parent="miscdiagram_rkYAmMowK_333dyPSvTDGAJ"><mxGeometry x="16" y="122" width="144" height="64" as="geometry"/></mxCell></UserObject><UserObject placeholders="1" label="App Calling Rules API" Icon-Name="cube" _id="userobject_3apIzBTRbIC" id="miscdiagram_rkYAmMowK_353dyPSvTSZX3"><mxCell style="shape=mxgraph.ibm2mondrian.base;shapeType=lg;shapeLayout=expanded;colorFamily=green;colorBackground=noColor:noColor;html=1;whiteSpace=wrap;metaEdit=1;strokeWidth=1;collapsible=0;recursiveResize=0;expand=0;fontFamily=IBM Plex Sans;fontColor=#000000;fontSize=14;image=;verticalAlign=middle;align=left;spacing=0;spacingLeft=12;spacingRight=16;spacingTop=0;spacingBottom=0;container=1" vertex="1" parent="miscdiagram_rkYAmMowK_333dyPSvTDGAJ"><mxGeometry x="16" y="48" width="144" height="64" as="geometry"/></mxCell></UserObject></root></mxGraphModel>